# xmcd
#
# Track frame offsets:
#	150
#	14780
#	32575
#	47485
#	62055
#	79200
#	96570
#	113570
#	131715
#	149540
#	165890
#	180490
#	198015
#	210740
#
# Disc length: 3025 seconds
#
# Revision: 4
# Processed by: cddbd v1.5.2PL0 Copyright (c) Steve Scherf et al.
# Submitted via: EZCDAudioConverter 2.0.7.1
#
DISCID=be0bcf0e
DTITLE=DIVERSOS - SAMBA and PAGODE VOL. 5
DYEAR=1995
DGENRE=Blues
TTITLE0=RAÇA NEGRA - ME LEVA JUNTO COM VOCÊ (BY DJ GILMAR SINISTRO)
TTITLE1=BANDA BRASIL - OLHA PRA  MIM (BY DJ GILMAR SINISTRO)
TTITLE2=ZECA PAGODINHO  - VOU BOTAR TEU NOME NA MACUMBA (BY DJ GILMAR SINISTRO
TTITLE2=)
TTITLE3=RAZÃO BRASILEIRA - MEDO (BY DJ GILMAR SINISTRO)
TTITLE4=DHEMA - O SONHO NÂO PODE ACABAR (BY DJ GILMAR SINISTRO)
TTITLE5=NEGRITUDE JUNIOR - OLHOS VERMELHOS (BY DJ GILMAR SINISTRO)
TTITLE6=ELIANA DE LIMA - VOLTA PARA ELA (BY DJ GILMAR SINISTRO)
TTITLE7=AGEPÊ - CHEIRO DE PRIMAVERA (BY DJ GILMAR SINISTRO)
TTITLE8=SÓ BAMBA - ALTO ASTRAL (BY DJ GILMAR SINISTRO)
TTITLE9=GINGA PURA - FRUTO DOS DEUSES (BY DJ GILMAR SINISTRO)
TTITLE10=ARTHEMANHA - SE LIGA (BY DJ GILMAR SINISTRO)
TTITLE11=DICRÓ - VENDENDO BARATO (BY DJ GILMAR SINISTRO)
TTITLE12=SAMBA E ÁGUA FRESCA - PRETINHA (BY DJ GILMAR SINISTRO)
TTITLE13=EROS FIDELIS - PRA VOCÊ  VOLTAR (BY DJ GILMAR SINISTRO)
EXTD=
EXTT0=
EXTT1=
EXTT2=
EXTT3=
EXTT4=
EXTT5=
EXTT6=
EXTT7=
EXTT8=
EXTT9=
EXTT10=
EXTT11=
EXTT12=
EXTT13=
PLAYORDER=
